<svg version="1.1" id="Layer_1" xmlns="http://www.w3.org/2000/svg" xmlns:xlink="http://www.w3.org/1999/xlink" x="0px" y="0px"
	 width="100%" viewBox="0 0 500 500" enable-background="new 0 0 500 500" xml:space="preserve">
<path fill="#000000" opacity="1.000000" stroke="none" 
	d="
M235.000000,501.000000 
	C156.666687,501.000000 78.833374,501.000000 1.000042,501.000000 
	C1.000028,334.333405 1.000028,167.666779 1.000014,1.000131 
	C167.666565,1.000087 334.333130,1.000087 500.999756,1.000044 
	C500.999847,167.666519 500.999847,334.333038 500.999939,500.999786 
	C412.500000,501.000000 324.000000,501.000000 235.000000,501.000000 
M112.551384,346.061768 
	C116.729111,345.620728 121.547585,343.600769 124.980904,344.994080 
	C147.838379,354.269928 171.601547,357.137604 195.960907,356.389374 
	C237.694473,355.107483 277.102386,344.369232 314.764893,326.711182 
	C316.302612,325.990234 317.881165,325.356445 320.584045,324.187592 
	C317.486755,330.340393 314.981537,335.201324 312.580322,340.113068 
	C308.469360,348.522247 312.780426,355.029633 322.018250,354.254150 
	C329.317413,353.641418 336.583313,352.480408 343.890198,352.160187 
	C349.787567,351.901733 353.317932,349.373474 355.776520,344.063568 
	C365.560303,322.932861 375.510742,301.877655 385.621857,280.901642 
	C387.689026,276.613281 390.376892,272.514893 393.364136,268.799774 
	C402.304260,257.681244 409.969025,245.895920 414.349426,232.191147 
	C422.596130,206.390015 415.680481,183.900955 394.221802,167.404617 
	C391.870544,165.597107 390.813812,163.891357 390.939697,160.845306 
	C391.272705,152.787140 387.204224,149.513168 379.089478,150.411163 
	C373.160278,151.067291 367.088959,152.123245 361.241516,151.498505 
	C347.219421,150.000336 333.279877,147.693222 319.341187,145.495911 
	C317.555817,145.214447 315.525940,144.006439 314.388275,142.598343 
	C311.845032,139.450531 308.834076,137.876373 304.864868,138.310471 
	C297.252472,139.143051 289.586548,139.731598 282.078400,141.142685 
	C279.326355,141.659897 276.947418,144.204926 274.419556,145.857498 
	C272.798157,146.917450 271.338623,148.708923 269.597046,149.027466 
	C248.251373,152.931641 227.433914,158.636780 207.232925,166.589691 
	C205.250946,167.369965 203.111710,167.876740 200.998123,168.175507 
	C190.506577,169.658524 181.142639,173.435379 173.352661,180.866547 
	C170.974808,183.134903 168.245941,185.130844 165.418976,186.817734 
	C142.501785,200.492828 120.989838,216.089859 105.355980,237.963577 
	C98.461067,247.610413 91.628578,253.984848 79.181152,253.333572 
	C73.934113,253.059021 71.390472,256.513397 70.798386,262.085632 
	C70.200371,267.713562 69.878090,273.371582 69.475189,279.019318 
	C68.029434,299.285645 66.541428,319.549286 65.199753,339.822571 
	C64.768333,346.341644 68.373093,350.545563 74.465576,350.049286 
	C86.900635,349.036285 99.293213,347.501709 112.551384,346.061768 
z"/>
<path fill="#E83829" opacity="1.000000" stroke="none" 
	d="
M112.127335,346.121887 
	C99.293213,347.501709 86.900635,349.036285 74.465576,350.049286 
	C68.373093,350.545563 64.768333,346.341644 65.199753,339.822571 
	C66.541428,319.549286 68.029434,299.285645 69.475189,279.019318 
	C69.878090,273.371582 70.200371,267.713562 70.798386,262.085632 
	C71.390472,256.513397 73.934113,253.059021 79.181152,253.333572 
	C91.628578,253.984848 98.461067,247.610413 105.355980,237.963577 
	C120.989838,216.089859 142.501785,200.492828 165.418976,186.817734 
	C168.245941,185.130844 170.974808,183.134903 173.352661,180.866547 
	C181.142639,173.435379 190.506577,169.658524 200.998123,168.175507 
	C203.111710,167.876740 205.250946,167.369965 207.232925,166.589691 
	C227.433914,158.636780 248.251373,152.931641 269.597046,149.027466 
	C271.338623,148.708923 272.798157,146.917450 274.419556,145.857498 
	C276.947418,144.204926 279.326355,141.659897 282.078400,141.142685 
	C289.586548,139.731598 297.252472,139.143051 304.864868,138.310471 
	C308.834076,137.876373 311.845032,139.450531 314.388275,142.598343 
	C315.525940,144.006439 317.555817,145.214447 319.341187,145.495911 
	C333.279877,147.693222 347.219421,150.000336 361.241516,151.498505 
	C367.088959,152.123245 373.160278,151.067291 379.089478,150.411163 
	C387.204224,149.513168 391.272705,152.787140 390.939697,160.845306 
	C390.813812,163.891357 391.870544,165.597107 394.221802,167.404617 
	C415.680481,183.900955 422.596130,206.390015 414.349426,232.191147 
	C409.969025,245.895920 402.304260,257.681244 393.364136,268.799774 
	C390.376892,272.514893 387.689026,276.613281 385.621857,280.901642 
	C375.510742,301.877655 365.560303,322.932861 355.776520,344.063568 
	C353.317932,349.373474 349.787567,351.901733 343.890198,352.160187 
	C336.583313,352.480408 329.317413,353.641418 322.018250,354.254150 
	C312.780426,355.029633 308.469360,348.522247 312.580322,340.113068 
	C314.981537,335.201324 317.486755,330.340393 320.584045,324.187592 
	C317.881165,325.356445 316.302612,325.990234 314.764893,326.711182 
	C277.102386,344.369232 237.694473,355.107483 195.960907,356.389374 
	C171.601547,357.137604 147.838379,354.269928 124.980904,344.994080 
	C121.547585,343.600769 116.729111,345.620728 112.127335,346.121887 
M316.986908,255.869415 
	C323.302277,272.687134 329.546539,289.532257 335.997375,306.297821 
	C337.184418,309.382904 337.035919,311.828033 335.460480,314.741943 
	C330.950439,323.083649 326.757080,331.597015 322.474152,340.060547 
	C321.709595,341.571411 321.112122,343.166809 320.064026,345.584839 
	C328.253326,344.712555 335.338226,343.759979 342.454987,343.290436 
	C345.610931,343.082245 346.993744,341.711639 348.265503,339.004120 
	C362.272858,309.183105 376.419373,279.427460 390.514557,249.647675 
	C391.136475,248.333725 391.627686,246.957962 392.388245,245.102463 
	C384.875671,245.836411 377.953033,246.679611 371.004913,247.127304 
	C366.999634,247.385391 364.879395,249.041046 363.608948,252.929504 
	C361.649567,258.926697 359.059662,264.719543 356.694641,270.581879 
	C355.454834,273.655060 354.124420,276.691681 352.428711,280.706573 
	C349.091919,269.862030 346.117126,260.193878 343.028961,250.157410 
	C334.141296,251.186111 325.571075,252.178055 316.186920,253.059875 
	C307.011414,253.158249 301.433929,259.534088 294.977600,265.837524 
	C294.977600,261.964325 294.977600,258.913544 294.977600,255.390244 
	C286.745300,256.274414 278.925995,257.114227 270.963562,257.969421 
	C269.474030,279.289795 268.030640,299.950195 266.545044,321.214325 
	C275.103546,320.317871 282.802979,319.511414 290.874908,318.665924 
	C291.570068,309.807526 292.211029,301.217804 292.928070,292.634399 
	C293.508392,285.686981 296.206818,282.455750 303.023132,280.887878 
	C306.541840,280.078491 310.162415,279.712311 314.042023,279.097504 
	C314.438873,272.888580 314.707642,266.916290 315.264099,260.970917 
	C315.449707,258.988007 316.371765,257.074066 316.986908,255.869415 
M230.599045,317.586151 
	C230.599045,317.586151 230.533234,317.531982 231.103806,318.280945 
	C231.227692,320.363373 231.351578,322.445831 231.486206,324.708923 
	C238.120605,324.065247 244.387787,323.304260 250.677917,322.905609 
	C254.320206,322.674774 255.829498,321.355774 255.975937,317.497864 
	C256.316467,308.527039 257.176056,299.576508 257.787415,290.615173 
	C258.496460,280.222412 259.165009,269.826904 259.885620,258.909943 
	C253.913971,259.565247 248.510925,260.494598 243.084869,260.657654 
	C237.804230,260.816345 233.647156,261.482544 235.537613,270.015747 
	C230.352264,263.809479 225.174088,261.787079 218.996338,262.444336 
	C211.929688,263.196167 205.799026,266.011932 201.115250,271.354034 
	C190.908752,282.995056 188.309097,296.661835 191.626892,311.440002 
	C193.517868,319.862915 198.682434,325.864166 207.662506,327.137756 
	C217.058716,328.470337 225.087311,325.812286 230.599045,317.586151 
M114.802856,258.264526 
	C104.874344,259.289215 94.958633,260.475830 85.011284,261.262299 
	C80.775085,261.597198 79.225174,263.110870 78.983040,267.541718 
	C77.984421,285.814972 76.523056,304.062714 75.269073,322.322388 
	C74.841667,328.545959 74.523766,334.777069 74.129257,341.454437 
	C86.251266,340.189728 97.749336,339.558228 109.042236,337.687897 
	C129.514160,334.297394 143.093674,322.368835 148.518890,302.234375 
	C155.393539,276.720551 141.235962,258.033997 114.802856,258.264526 
M306.073456,156.766083 
	C306.271393,153.676971 306.469330,150.587875 306.689178,147.157089 
	C298.222137,148.075027 290.337433,148.929840 282.376282,149.792938 
	C281.678223,158.970810 281.018707,167.641785 280.279572,177.359619 
	C274.294525,169.978043 267.124603,168.767059 260.124878,171.429550 
	C254.602219,173.530197 248.843002,176.965591 245.104568,181.417053 
	C235.584213,192.753143 233.771301,206.413086 237.399033,220.518326 
	C240.178207,231.324188 249.222519,236.651154 260.231354,235.266769 
	C267.067413,234.407104 272.205841,230.824432 277.046112,225.042374 
	C277.046112,228.199646 277.046112,230.437836 277.046112,232.795883 
	C285.161621,231.926331 292.916260,231.095444 300.955200,230.234100 
	C302.663055,205.841049 304.348724,181.765335 306.073456,156.766083 
M367.894836,223.298965 
	C371.161224,222.954803 374.427612,222.610641 377.841461,222.250946 
	C379.338013,200.923508 380.800201,180.085678 382.283905,158.941040 
	C373.673737,159.871155 365.941528,160.706436 357.818665,161.583908 
	C357.159546,171.380142 356.684387,180.846619 355.807953,190.275803 
	C355.460815,194.010315 354.831146,197.955429 353.231476,201.275299 
	C351.332794,205.215714 347.296967,206.661453 342.998505,205.551086 
	C338.639252,204.425034 337.820251,200.809006 338.041779,196.855972 
	C338.181549,194.362076 338.457092,191.876099 338.620117,189.383179 
	C339.179108,180.835541 339.715332,172.286438 340.281952,163.396301 
	C331.675446,164.320862 323.952332,165.150528 316.027802,166.001816 
	C315.301697,176.569870 314.503357,186.684540 313.955048,196.812744 
	C313.686371,201.776291 313.347473,206.833710 313.976532,211.728333 
	C315.385834,222.694107 322.908173,228.215118 333.882324,227.336060 
	C342.019928,226.684189 348.164825,222.531616 353.794556,216.218338 
	C353.794556,219.502731 353.794556,222.061020 353.794556,224.835907 
	C358.423889,224.344299 362.713623,223.888763 367.894836,223.298965 
M219.910477,231.420914 
	C224.292313,227.027695 227.724167,222.098602 229.315536,215.283630 
	C220.943985,216.187500 213.198868,216.957809 205.479156,217.929733 
	C204.347000,218.072281 203.411713,219.412048 202.252594,219.782227 
	C199.721954,220.590485 196.914307,221.991974 194.592957,221.475159 
	C193.075317,221.137299 192.212051,217.860168 190.512711,214.978943 
	C204.882614,213.412247 217.846695,211.998825 230.866730,210.579300 
	C231.155670,207.909637 231.507233,205.769379 231.600739,203.617905 
	C232.217133,189.435425 224.277725,179.187469 211.178329,177.174896 
	C192.030731,174.233063 173.302216,186.906738 169.072067,205.824173 
	C167.240143,214.016678 166.923950,222.167038 170.860474,229.933685 
	C181.632355,228.224579 190.076599,230.575806 195.375824,240.479950 
	C195.893997,241.448395 198.547089,241.871155 200.050339,241.614960 
	C207.442673,240.355209 213.882782,237.008133 219.910477,231.420914 
M183.568268,287.070374 
	C184.002411,280.490082 184.436539,273.909821 184.903885,266.826233 
	C178.015564,267.568512 171.768906,268.548584 165.492462,268.808014 
	C161.438492,268.975555 160.177979,270.392365 159.971405,274.399689 
	C159.294037,287.539978 158.170135,300.656860 157.263916,313.785919 
	C156.834274,320.010620 156.509155,326.242493 156.125137,332.663940 
	C163.120331,331.981476 169.403244,331.173950 175.711548,330.822784 
	C179.785995,330.596008 180.834488,328.756653 181.017181,324.895905 
	C181.599731,312.584778 182.609085,300.293884 183.568268,287.070374 
M171.508667,263.051636 
	C175.337021,261.684845 179.614471,260.989166 182.890472,258.796936 
	C188.053177,255.342148 189.430115,248.575729 186.981125,243.738586 
	C184.707001,239.246826 179.330856,236.912582 173.177933,238.784622 
	C169.538101,239.892029 165.856552,241.963409 163.088379,244.556366 
	C159.618317,247.806793 158.901413,252.461609 160.675949,257.029175 
	C162.402283,261.472687 166.163574,262.971527 171.508667,263.051636 
z"/>
<path fill="#030100" opacity="1.000000" stroke="none" 
	d="
M115.256683,258.239380 
	C141.235962,258.033997 155.393539,276.720551 148.518890,302.234375 
	C143.093674,322.368835 129.514160,334.297394 109.042236,337.687897 
	C97.749336,339.558228 86.251266,340.189728 74.129257,341.454437 
	C74.523766,334.777069 74.841667,328.545959 75.269073,322.322388 
	C76.523056,304.062714 77.984421,285.814972 78.983040,267.541718 
	C79.225174,263.110870 80.775085,261.597198 85.011284,261.262299 
	C94.958633,260.475830 104.874344,259.289215 115.256683,258.239380 
M120.834282,283.594666 
	C115.246918,279.231140 109.080437,280.381683 102.528008,281.479950 
	C101.711815,293.180573 100.909988,304.675354 100.092918,316.388611 
	C109.918945,316.284058 118.398819,314.284180 122.771675,305.170532 
	C126.137650,298.155365 126.797791,290.795380 120.834282,283.594666 
z"/>
<path fill="#FFFDFC" opacity="1.000000" stroke="none" 
	d="
M306.053925,157.227844 
	C304.348724,181.765335 302.663055,205.841049 300.955200,230.234100 
	C292.916260,231.095444 285.161621,231.926331 277.046112,232.795883 
	C277.046112,230.437836 277.046112,228.199646 277.046112,225.042374 
	C272.205841,230.824432 267.067413,234.407104 260.231354,235.266769 
	C249.222519,236.651154 240.178207,231.324188 237.399033,220.518326 
	C233.771301,206.413086 235.584213,192.753143 245.104568,181.417053 
	C248.843002,176.965591 254.602219,173.530197 260.124878,171.429550 
	C267.124603,168.767059 274.294525,169.978043 280.279572,177.359619 
	C281.018707,167.641785 281.678223,158.970810 282.376282,149.792938 
	C290.337433,148.929840 298.222137,148.075027 306.689178,147.157089 
	C306.469330,150.587875 306.271393,153.676971 306.053925,157.227844 
M275.763916,192.703262 
	C271.969238,190.410843 268.382721,191.233521 265.184326,193.778732 
	C261.139862,196.997238 260.352142,201.529037 260.978851,206.357986 
	C261.619232,211.292145 265.509644,213.783203 270.315704,212.518539 
	C278.176666,210.450012 281.237946,200.673111 275.763916,192.703262 
z"/>
<path fill="#030101" opacity="1.000000" stroke="none" 
	d="
M230.581543,317.501068 
	C225.087311,325.812286 217.058716,328.470337 207.662506,327.137756 
	C198.682434,325.864166 193.517868,319.862915 191.626892,311.440002 
	C188.309097,296.661835 190.908752,282.995056 201.115250,271.354034 
	C205.799026,266.011932 211.929688,263.196167 218.996338,262.444336 
	C225.174088,261.787079 230.352264,263.809479 235.537613,270.015747 
	C233.647156,261.482544 237.804230,260.816345 243.084869,260.657654 
	C248.510925,260.494598 253.913971,259.565247 259.885620,258.909943 
	C259.165009,269.826904 258.496460,280.222412 257.787415,290.615173 
	C257.176056,299.576508 256.316467,308.527039 255.975937,317.497864 
	C255.829498,321.355774 254.320206,322.674774 250.677917,322.905609 
	C244.387787,323.304260 238.120605,324.065247 231.486206,324.708923 
	C231.351578,322.445831 231.227692,320.363373 230.953659,317.925171 
	C230.803513,317.569397 230.865967,317.668640 230.865967,317.668640 
	C230.865967,317.668640 230.581543,317.501068 230.581543,317.501068 
M232.518860,287.533417 
	C229.231598,283.071533 225.113632,281.655731 221.206345,284.976379 
	C218.455048,287.314606 216.424026,291.167786 215.431549,294.724060 
	C214.399368,298.422729 215.430984,302.504089 219.741058,304.225311 
	C224.003815,305.927643 227.576462,304.210999 230.354950,300.986237 
	C233.529785,297.301483 233.675797,292.855194 232.518860,287.533417 
z"/>
<path fill="#030101" opacity="1.000000" stroke="none" 
	d="
M317.000854,253.169998 
	C325.571075,252.178055 334.141296,251.186111 343.028961,250.157410 
	C346.117126,260.193878 349.091919,269.862030 352.428711,280.706573 
	C354.124420,276.691681 355.454834,273.655060 356.694641,270.581879 
	C359.059662,264.719543 361.649567,258.926697 363.608948,252.929504 
	C364.879395,249.041046 366.999634,247.385391 371.004913,247.127304 
	C377.953033,246.679611 384.875671,245.836411 392.388245,245.102463 
	C391.627686,246.957962 391.136475,248.333725 390.514557,249.647675 
	C376.419373,279.427460 362.272858,309.183105 348.265503,339.004120 
	C346.993744,341.711639 345.610931,343.082245 342.454987,343.290436 
	C335.338226,343.759979 328.253326,344.712555 320.064026,345.584839 
	C321.112122,343.166809 321.709595,341.571411 322.474152,340.060547 
	C326.757080,331.597015 330.950439,323.083649 335.460480,314.741943 
	C337.035919,311.828033 337.184418,309.382904 335.997375,306.297821 
	C329.546539,289.532257 323.302277,272.687134 316.981201,255.172607 
	C316.983948,254.040543 316.992401,253.605270 317.000854,253.169998 
z"/>
<path fill="#FFFCFC" opacity="1.000000" stroke="none" 
	d="
M367.449097,223.366089 
	C362.713623,223.888763 358.423889,224.344299 353.794556,224.835907 
	C353.794556,222.061020 353.794556,219.502731 353.794556,216.218338 
	C348.164825,222.531616 342.019928,226.684189 333.882324,227.336060 
	C322.908173,228.215118 315.385834,222.694107 313.976532,211.728333 
	C313.347473,206.833710 313.686371,201.776291 313.955048,196.812744 
	C314.503357,186.684540 315.301697,176.569870 316.027802,166.001816 
	C323.952332,165.150528 331.675446,164.320862 340.281952,163.396301 
	C339.715332,172.286438 339.179108,180.835541 338.620117,189.383179 
	C338.457092,191.876099 338.181549,194.362076 338.041779,196.855972 
	C337.820251,200.809006 338.639252,204.425034 342.998505,205.551086 
	C347.296967,206.661453 351.332794,205.215714 353.231476,201.275299 
	C354.831146,197.955429 355.460815,194.010315 355.807953,190.275803 
	C356.684387,180.846619 357.159546,171.380142 357.818665,161.583908 
	C365.941528,160.706436 373.673737,159.871155 382.283905,158.941040 
	C380.800201,180.085678 379.338013,200.923508 377.841461,222.250946 
	C374.427612,222.610641 371.161224,222.954803 367.449097,223.366089 
z"/>
<path fill="#FFFCFC" opacity="1.000000" stroke="none" 
	d="
M219.653549,231.664307 
	C213.882782,237.008133 207.442673,240.355209 200.050339,241.614960 
	C198.547089,241.871155 195.893997,241.448395 195.375824,240.479950 
	C190.076599,230.575806 181.632355,228.224579 170.860474,229.933685 
	C166.923950,222.167038 167.240143,214.016678 169.072067,205.824173 
	C173.302216,186.906738 192.030731,174.233063 211.178329,177.174896 
	C224.277725,179.187469 232.217133,189.435425 231.600739,203.617905 
	C231.507233,205.769379 231.155670,207.909637 230.866730,210.579300 
	C217.846695,211.998825 204.882614,213.412247 190.512711,214.978943 
	C192.212051,217.860168 193.075317,221.137299 194.592957,221.475159 
	C196.914307,221.991974 199.721954,220.590485 202.252594,219.782227 
	C203.411713,219.412048 204.347000,218.072281 205.479156,217.929733 
	C213.198868,216.957809 220.943985,216.187500 229.315536,215.283630 
	C227.724167,222.098602 224.292313,227.027695 219.653549,231.664307 
M198.998444,196.989563 
	C195.585938,198.040924 193.302856,200.044968 192.961731,204.410324 
	C197.762253,203.918839 202.285599,203.455719 206.921738,202.981049 
	C206.937103,197.593994 204.062164,196.387909 198.998444,196.989563 
z"/>
<path fill="#030101" opacity="1.000000" stroke="none" 
	d="
M316.593872,253.114929 
	C316.992401,253.605270 316.983948,254.040543 316.966309,254.802216 
	C316.371765,257.074066 315.449707,258.988007 315.264099,260.970917 
	C314.707642,266.916290 314.438873,272.888580 314.042023,279.097504 
	C310.162415,279.712311 306.541840,280.078491 303.023132,280.887878 
	C296.206818,282.455750 293.508392,285.686981 292.928070,292.634399 
	C292.211029,301.217804 291.570068,309.807526 290.874908,318.665924 
	C282.802979,319.511414 275.103546,320.317871 266.545044,321.214325 
	C268.030640,299.950195 269.474030,279.289795 270.963562,257.969421 
	C278.925995,257.114227 286.745300,256.274414 294.977600,255.390244 
	C294.977600,258.913544 294.977600,261.964325 294.977600,265.837524 
	C301.433929,259.534088 307.011414,253.158249 316.593872,253.114929 
z"/>
<path fill="#040101" opacity="1.000000" stroke="none" 
	d="
M183.510925,287.532776 
	C182.609085,300.293884 181.599731,312.584778 181.017181,324.895905 
	C180.834488,328.756653 179.785995,330.596008 175.711548,330.822784 
	C169.403244,331.173950 163.120331,331.981476 156.125137,332.663940 
	C156.509155,326.242493 156.834274,320.010620 157.263916,313.785919 
	C158.170135,300.656860 159.294037,287.539978 159.971405,274.399689 
	C160.177979,270.392365 161.438492,268.975555 165.492462,268.808014 
	C171.768906,268.548584 178.015564,267.568512 184.903885,266.826233 
	C184.436539,273.909821 184.002411,280.490082 183.510925,287.532776 
z"/>
<path fill="#040101" opacity="1.000000" stroke="none" 
	d="
M171.082581,263.050995 
	C166.163574,262.971527 162.402283,261.472687 160.675949,257.029175 
	C158.901413,252.461609 159.618317,247.806793 163.088379,244.556366 
	C165.856552,241.963409 169.538101,239.892029 173.177933,238.784622 
	C179.330856,236.912582 184.707001,239.246826 186.981125,243.738586 
	C189.430115,248.575729 188.053177,255.342148 182.890472,258.796936 
	C179.614471,260.989166 175.337021,261.684845 171.082581,263.050995 
z"/>
<path fill="#E53728" opacity="1.000000" stroke="none" 
	d="
M121.116959,283.846008 
	C126.797791,290.795380 126.137650,298.155365 122.771675,305.170532 
	C118.398819,314.284180 109.918945,316.284058 100.092918,316.388611 
	C100.909988,304.675354 101.711815,293.180573 102.528008,281.479950 
	C109.080437,280.381683 115.246918,279.231140 121.116959,283.846008 
z"/>
<path fill="#EB3D2F" opacity="1.000000" stroke="none" 
	d="
M276.068726,192.937317 
	C281.237946,200.673111 278.176666,210.450012 270.315704,212.518539 
	C265.509644,213.783203 261.619232,211.292145 260.978851,206.357986 
	C260.352142,201.529037 261.139862,196.997238 265.184326,193.778732 
	C268.382721,191.233521 271.969238,190.410843 276.068726,192.937317 
z"/>
<path fill="#E43728" opacity="1.000000" stroke="none" 
	d="
M232.675659,287.915283 
	C233.675797,292.855194 233.529785,297.301483 230.354950,300.986237 
	C227.576462,304.210999 224.003815,305.927643 219.741058,304.225311 
	C215.430984,302.504089 214.399368,298.422729 215.431549,294.724060 
	C216.424026,291.167786 218.455048,287.314606 221.206345,284.976379 
	C225.113632,281.655731 229.231598,283.071533 232.675659,287.915283 
z"/>
<path fill="#E83829" opacity="1.000000" stroke="none" 
	d="
M230.590302,317.543610 
	C230.581543,317.501068 230.865967,317.668640 230.865967,317.668640 
	C230.865967,317.668640 230.803513,317.569397 230.668365,317.550690 
	C230.533234,317.531982 230.599045,317.586151 230.590302,317.543610 
z"/>
<path fill="#EB4132" opacity="1.000000" stroke="none" 
	d="
M199.404877,196.929260 
	C204.062164,196.387909 206.937103,197.593994 206.921738,202.981049 
	C202.285599,203.455719 197.762253,203.918839 192.961731,204.410324 
	C193.302856,200.044968 195.585938,198.040924 199.404877,196.929260 
z"/>
</svg>