<svg version="1.1" id="Layer_1" xmlns="http://www.w3.org/2000/svg" xmlns:xlink="http://www.w3.org/1999/xlink" x="0px" y="0px"
	 width="100%" viewBox="0 0 496 496" enable-background="new 0 0 496 496" xml:space="preserve">
<path fill="#000000" opacity="1.000000" stroke="none" 
	d="
M128.175873,181.990417 
	C119.315201,180.886002 110.875191,180.203827 102.366875,180.282043 
	C99.013084,180.312866 98.084930,181.739578 98.085510,184.818634 
	C98.090645,212.130264 98.075798,239.442322 97.891869,266.753082 
	C97.861908,271.201660 99.985565,271.902802 103.746422,271.927704 
	C122.829369,272.053986 141.592590,274.129822 159.461731,281.495972 
	C165.653214,284.048248 171.501266,287.174255 177.059723,290.871552 
	C180.750427,293.326508 183.114471,303.800171 180.842072,307.543030 
	C179.640808,309.521637 177.615372,309.080811 175.885300,308.909271 
	C165.414459,307.871185 154.916824,308.196381 144.432922,308.272125 
	C116.074120,308.476929 87.970978,310.961060 60.422050,318.156769 
	C54.508595,319.701385 51.794102,317.701935 51.785736,311.579102 
	C51.741131,278.936493 51.822197,246.293732 51.825054,213.651016 
	C51.825424,209.407593 53.622601,206.673645 57.844570,205.696411 
	C58.168392,205.621460 58.485996,205.516617 58.802410,205.413193 
	C68.429276,202.266693 68.429192,202.266449 69.100113,192.259277 
	C69.515511,186.063385 70.730637,184.914932 77.083214,184.676132 
	C78.580170,184.619858 80.074715,184.465317 81.571541,184.445663 
	C85.899162,184.388824 88.321609,182.887466 87.844414,177.898987 
	C87.387184,173.119263 89.734077,170.617065 94.899818,170.457977 
	C122.927933,169.594772 150.128006,172.421188 174.674103,187.618896 
	C181.993668,192.150787 182.581757,193.809067 180.412521,203.801987 
	C165.021210,191.556900 147.892563,184.118591 128.175873,181.990417 
M68.879700,223.955811 
	C69.174919,220.555084 70.297798,217.071854 67.984383,213.890900 
	C63.530415,213.496918 62.125893,215.560837 62.139698,219.780762 
	C62.229065,247.094208 62.136501,274.408203 62.140110,301.722046 
	C62.140324,303.339966 61.759174,305.063446 63.157673,307.036255 
	C90.065666,301.307892 117.494949,298.137695 145.304581,297.914520 
	C138.988617,296.748505 132.652161,295.919189 126.291939,295.360382 
	C110.998047,294.016663 95.694260,294.865448 80.390030,295.288727 
	C69.538200,295.588898 69.007820,294.982147 68.988037,284.328003 
	C68.951225,264.508331 68.928917,244.688675 68.879700,223.955811 
M140.871780,286.505890 
	C140.429993,285.264008 139.272552,285.558258 138.363190,285.361847 
	C125.283348,282.536407 112.016678,281.879211 98.689323,282.032227 
	C88.533844,282.148834 87.699409,281.363129 87.702820,271.019653 
	C87.710739,247.051880 87.715439,223.084091 87.758919,199.116379 
	C87.763908,196.367645 87.579124,194.192307 83.866768,194.257248 
	C80.399048,194.317902 79.227341,195.803680 79.234489,199.141968 
	C79.292648,226.271973 79.283669,253.402252 79.206558,280.532196 
	C79.197403,283.753510 80.423935,284.955109 83.630661,284.924469 
	C102.581642,284.743195 121.556305,283.954620 140.871780,286.505890 
z"/>
<path fill="#000000" opacity="1.000000" stroke="none" 
	d="
M259.643707,242.146301 
	C248.728333,244.503311 241.079346,240.457108 237.488876,229.893463 
	C236.167664,226.006241 234.255951,225.193634 230.629547,225.320724 
	C223.873718,225.557495 217.103683,225.388687 210.229446,225.388687 
	C211.307205,231.250778 215.392853,233.701721 219.573715,230.819550 
	C224.600571,227.354141 229.769974,229.251831 234.938599,228.450806 
	C234.329559,236.744293 226.288879,242.990417 216.718582,243.114944 
	C206.458603,243.248413 197.985214,235.889801 196.760315,225.782425 
	C195.338120,214.046997 201.259674,204.870865 211.691589,202.644669 
	C223.645203,200.093765 232.781830,205.349930 236.530716,216.934280 
	C240.871567,203.260574 249.412842,199.567856 265.207489,204.892273 
	C266.302338,201.512344 265.825623,198.044525 265.772247,194.678879 
	C265.716278,191.150818 266.889252,189.624451 270.670288,189.591080 
	C279.309753,189.514847 279.309784,189.346481 279.307495,197.865479 
	C279.304169,210.197556 279.399689,222.531204 279.209015,234.860397 
	C279.170349,237.360611 280.918854,241.477951 276.949249,241.982101 
	C272.926971,242.492950 267.978851,244.461807 264.944794,239.441101 
	C263.243866,240.335114 261.628998,241.183899 259.643707,242.146301 
M250.534836,218.190628 
	C250.172562,219.468689 249.611603,220.727280 249.484161,222.028336 
	C249.049896,226.461563 252.374634,230.747025 256.661469,231.475967 
	C260.246979,232.085663 264.350586,229.348038 265.469543,225.599884 
	C266.785583,221.191391 265.236481,216.736191 261.659271,214.641708 
	C257.814697,212.390671 254.621750,213.245926 250.534836,218.190628 
M218.191528,217.656784 
	C219.590103,217.461792 221.223801,218.157562 222.273758,216.605911 
	C218.966431,211.770859 213.557922,211.946304 210.794373,217.658173 
	C213.194992,217.658173 215.280823,217.658173 218.191528,217.656784 
z"/>
<path fill="#000000" opacity="1.000000" stroke="none" 
	d="
M354.088348,286.875244 
	C355.802917,282.347595 357.642578,278.216156 358.873260,273.910614 
	C360.024536,269.882721 362.134827,268.012238 366.380859,268.628510 
	C368.798981,268.979492 371.353729,268.145416 373.697845,269.357086 
	C374.306305,271.404022 373.126129,272.957977 372.432709,274.597626 
	C366.209167,289.314362 359.957092,304.019043 353.712311,318.726807 
	C349.637543,328.323792 348.367981,328.948456 336.901642,326.614532 
	C337.854736,321.506958 340.588776,317.091431 342.775848,312.590576 
	C344.725616,308.578094 344.604919,305.181885 342.815155,301.251770 
	C339.443756,293.848724 336.442932,286.276886 332.824890,278.404877 
	C332.572205,281.925598 330.330994,282.038391 327.931274,282.249115 
	C322.009705,282.769104 320.468658,284.472168 320.346588,290.462860 
	C320.255005,294.958405 320.190063,299.459778 320.318146,303.952728 
	C320.408447,307.118805 319.224335,308.629150 315.954193,308.359589 
	C314.465210,308.236847 312.949524,308.234802 311.460541,308.356537 
	C307.913788,308.646515 306.808197,306.886230 306.837921,303.576813 
	C306.927582,293.584137 306.975250,283.587677 306.784912,273.597534 
	C306.707092,269.510834 308.549103,268.147308 312.228088,268.691040 
	C315.420715,269.162903 319.984589,266.599579 320.837921,273.288605 
	C326.772400,266.210083 334.265228,268.976166 341.202454,268.713501 
	C343.569458,268.623871 344.203644,270.440887 344.855499,272.177704 
	C347.128967,278.234894 349.386139,284.298187 351.731171,290.577850 
	C353.419037,289.721619 353.441284,288.302185 354.088348,286.875244 
z"/>
<path fill="#000000" opacity="1.000000" stroke="none" 
	d="
M217.861954,308.339325 
	C212.557617,308.338409 207.733200,308.265503 202.911850,308.355988 
	C200.093933,308.408844 198.617340,307.525696 198.636856,304.391052 
	C198.725937,290.088562 198.679886,275.785187 198.681015,261.482147 
	C198.681168,259.515106 198.944000,257.712128 201.515106,257.737823 
	C208.824402,257.810852 216.260864,257.091400 223.414978,258.192749 
	C236.864227,260.263214 244.666595,271.419922 243.490204,285.311707 
	C242.303314,299.327606 232.881302,307.954254 217.861954,308.339325 
M223.731110,270.502655 
	C221.282104,269.201843 218.611725,269.229279 215.943665,269.148987 
	C213.256912,269.068146 211.912369,270.240448 211.924057,272.979126 
	C211.952499,279.638885 211.951294,286.298767 211.941849,292.958618 
	C211.938065,295.627136 213.171738,296.765350 215.896896,296.902466 
	C222.253647,297.222321 227.448746,294.498077 229.389313,289.528870 
	C232.164764,282.421753 230.266754,275.319824 223.731110,270.502655 
z"/>
<path fill="#000000" opacity="1.000000" stroke="none" 
	d="
M277.336975,308.947021 
	C266.573883,306.491638 260.521210,298.599976 260.888885,287.966339 
	C261.256012,277.347626 267.008179,270.026337 276.460510,268.207458 
	C281.338898,267.268738 285.607605,268.886871 289.599487,271.511230 
	C291.609009,269.063538 300.660156,267.485596 302.975769,269.177979 
	C304.231384,270.095642 304.127563,271.510529 304.129181,272.812408 
	C304.142151,283.280304 304.072876,293.748474 304.131134,304.216003 
	C304.147614,307.170319 302.924438,308.699036 299.979614,308.289551 
	C296.531219,307.810028 292.223419,310.219330 289.912476,305.350708 
	C286.099976,307.400421 282.261017,309.380493 277.336975,308.947021 
M275.003113,284.724152 
	C274.785828,285.848419 274.406982,286.968658 274.378723,288.097687 
	C274.243347,293.505249 277.717987,297.593567 282.351410,297.600311 
	C287.288177,297.607483 290.917297,293.335205 290.662781,287.865936 
	C290.469971,283.722565 288.385162,280.994873 284.449585,279.865875 
	C280.312866,278.679199 277.453278,280.645325 275.003113,284.724152 
z"/>
<path fill="#000000" opacity="1.000000" stroke="none" 
	d="
M180.255981,264.573273 
	C178.968842,266.642548 178.145203,265.100861 177.536987,264.384827 
	C171.559799,257.348389 163.041748,252.527588 159.382996,243.447601 
	C158.627075,241.571609 156.780258,240.883469 154.776672,241.253433 
	C152.760269,241.625763 151.555359,242.945389 151.296722,244.988266 
	C150.986176,247.441132 152.048050,248.981430 154.312683,250.116150 
	C163.296997,254.617828 168.161652,263.441223 176.572937,270.097809 
	C171.802017,270.871918 168.926727,269.373901 165.949280,268.606567 
	C159.026184,266.822357 152.144684,264.876556 145.220688,263.095978 
	C142.315735,262.348907 140.674469,261.046295 140.642151,257.656586 
	C140.575699,250.687866 138.506012,244.143631 134.682205,238.348190 
	C132.875763,235.610291 133.323227,233.830154 135.559540,231.964920 
	C135.814209,231.752518 136.029175,231.492523 136.262711,231.254776 
	C144.025345,223.352264 144.026154,223.350418 154.132263,227.748627 
	C158.459076,229.631653 162.993835,230.745392 167.694977,230.683884 
	C170.744446,230.643997 172.219315,231.844818 172.920700,234.748215 
	C175.300659,244.600159 177.826416,254.416885 180.255981,264.573273 
z"/>
<path fill="#000000" opacity="1.000000" stroke="none" 
	d="
M309.054291,220.825760 
	C309.069092,217.022308 309.071106,213.693039 309.092438,210.363892 
	C309.143890,202.331284 309.147430,202.333603 317.751373,202.666580 
	C319.909088,202.750076 322.296539,202.418396 322.291534,205.745804 
	C322.274750,216.898285 322.277832,228.050842 322.299347,239.203323 
	C322.303955,241.594727 321.000336,242.565277 318.827942,242.321487 
	C315.355927,241.931870 311.555969,243.699539 308.470398,240.442123 
	C307.395599,239.307480 306.025726,240.836182 304.866974,241.328629 
	C293.490021,246.163681 283.237579,240.045319 282.668518,227.722687 
	C282.294769,219.629211 282.597870,211.504486 282.597870,203.520615 
	C283.522369,203.149948 283.963409,202.843506 284.425934,202.806625 
	C295.347809,201.935394 295.347900,201.940735 295.348999,212.917526 
	C295.349304,216.080307 295.308746,219.243835 295.363251,222.405701 
	C295.459808,228.009338 297.818115,231.321854 301.809235,231.569412 
	C306.164581,231.839569 308.633453,228.839920 309.020660,222.797668 
	C309.052551,222.299850 309.041412,221.799286 309.054291,220.825760 
z"/>
<path fill="#000000" opacity="1.000000" stroke="none" 
	d="
M129.827148,198.241486 
	C132.970581,203.568481 135.865173,208.625992 138.842560,213.634293 
	C140.149414,215.832611 139.896423,217.508987 138.004044,219.345551 
	C124.112793,232.826935 130.493134,232.203766 113.038300,222.786194 
	C108.529747,220.353638 104.387283,217.219986 100.309166,213.354218 
	C102.698196,209.481491 106.145226,206.838058 109.059311,203.756119 
	C112.492516,200.125137 116.181305,196.727951 119.497986,192.997101 
	C122.224609,189.929947 124.286102,189.980682 126.405853,193.490005 
	C127.349777,195.052719 128.535797,196.469177 129.827148,198.241486 
z"/>
<path fill="#000000" opacity="1.000000" stroke="none" 
	d="
M259.290100,289.999176 
	C259.287598,294.980377 259.192017,299.464813 259.323303,303.942566 
	C259.416016,307.105316 258.165405,308.581573 254.943115,308.351593 
	C253.456757,308.245453 251.948502,308.231628 250.464401,308.351776 
	C246.947861,308.636566 245.798782,306.905426 245.826965,303.601410 
	C245.913345,293.477051 245.944962,283.350037 245.794220,273.227081 
	C245.741928,269.715027 247.176865,268.403381 250.527100,268.650726 
	C252.178207,268.772644 253.848053,268.743378 255.504379,268.669464 
	C258.278442,268.545746 259.351990,269.874969 259.315704,272.569366 
	C259.239685,278.211823 259.293427,283.856049 259.290100,289.999176 
z"/>
<path fill="#000000" opacity="1.000000" stroke="none" 
	d="
M246.437195,253.478912 
	C247.829788,251.904053 249.194885,250.986191 250.920380,250.788742 
	C254.268723,250.405609 257.310822,250.985352 258.997925,254.276413 
	C260.500519,257.207581 260.375977,260.165375 257.748749,262.425629 
	C254.959259,264.825500 251.647461,265.151642 248.512131,263.266174 
	C245.511139,261.461456 244.288940,258.683533 245.614410,255.166885 
	C245.789169,254.703247 246.005112,254.255112 246.437195,253.478912 
z"/>
<path fill="#000000" opacity="1.000000" stroke="none" 
	d="
M143.762634,217.494873 
	C145.756500,219.170517 145.191818,220.599091 143.883987,221.926453 
	C139.941010,225.928284 135.991821,229.924606 131.996033,233.873459 
	C130.779083,235.076172 129.322006,236.167526 127.748871,234.446487 
	C126.382561,232.951691 127.367081,231.618698 128.528961,230.614655 
	C133.570877,226.257584 137.056259,220.152023 143.762634,217.494873 
z"/>
</svg>